<mxfile host="app.diagrams.net" modified="2020-03-31T07:14:09.670Z" agent="5.0 (Macintosh; Intel Mac OS X 10_14_6) AppleWebKit/537.36 (KHTML, like Gecko) Chrome/80.0.3987.149 Safari/537.36" etag="Pv-2PsAUkvvLL1fmxtJV" version="12.9.5" type="github">
  <diagram id="osySlG6vOF2VXdflo7Ny" name="Page-1">
    <mxGraphModel dx="946" dy="530" grid="1" gridSize="10" guides="1" tooltips="1" connect="1" arrows="1" fold="1" page="1" pageScale="1" pageWidth="827" pageHeight="1169" math="0" shadow="0">
      <root>
        <mxCell id="0" />
        <mxCell id="1" parent="0" />
        <mxCell id="NDg6Oueld_C1ia3fCb1J-2" value="" style="rounded=0;whiteSpace=wrap;html=1;" parent="1" vertex="1">
          <mxGeometry x="350" y="240" width="120" height="60" as="geometry" />
        </mxCell>
        <mxCell id="NDg6Oueld_C1ia3fCb1J-3" value="" style="rounded=0;whiteSpace=wrap;html=1;fillColor=#d5e8d4;strokeColor=#82b366;" parent="1" vertex="1">
          <mxGeometry width="827" height="540" as="geometry" />
        </mxCell>
        <mxCell id="NDg6Oueld_C1ia3fCb1J-4" value="" style="rounded=0;whiteSpace=wrap;html=1;fillColor=#ffe6cc;strokeColor=#d79b00;" parent="1" vertex="1">
          <mxGeometry x="20" y="62.5" width="210" height="455" as="geometry" />
        </mxCell>
        <mxCell id="NDg6Oueld_C1ia3fCb1J-5" value="&lt;p&gt;The thread that sends the message&lt;/p&gt;" style="text;html=1;strokeColor=none;fillColor=none;align=center;verticalAlign=middle;whiteSpace=wrap;rounded=0;fontFamily=Comic Sans MS;" parent="1" vertex="1">
          <mxGeometry x="20" y="70" width="210" height="20" as="geometry" />
        </mxCell>
        <mxCell id="NDg6Oueld_C1ia3fCb1J-6" value="" style="rounded=0;whiteSpace=wrap;html=1;fillColor=#ffe6cc;strokeColor=#d79b00;" parent="1" vertex="1">
          <mxGeometry x="410" y="55" width="390" height="440" as="geometry" />
        </mxCell>
        <mxCell id="NDg6Oueld_C1ia3fCb1J-7" value="&lt;p&gt;The thread that receives the message&lt;/p&gt;" style="text;html=1;strokeColor=none;fillColor=none;align=center;verticalAlign=middle;whiteSpace=wrap;rounded=0;fontFamily=Comic Sans MS;" parent="1" vertex="1">
          <mxGeometry x="500" y="70" width="280" height="20" as="geometry" />
        </mxCell>
        <mxCell id="NDg6Oueld_C1ia3fCb1J-95" style="edgeStyle=orthogonalEdgeStyle;rounded=0;orthogonalLoop=1;jettySize=auto;html=1;exitX=0.5;exitY=1;exitDx=0;exitDy=0;entryX=0;entryY=0.5;entryDx=0;entryDy=0;fontFamily=Comic Sans MS;" parent="1" source="NDg6Oueld_C1ia3fCb1J-10" target="NDg6Oueld_C1ia3fCb1J-70" edge="1">
          <mxGeometry relative="1" as="geometry" />
        </mxCell>
        <mxCell id="NDg6Oueld_C1ia3fCb1J-101" style="edgeStyle=orthogonalEdgeStyle;rounded=0;orthogonalLoop=1;jettySize=auto;html=1;exitX=0;exitY=0.5;exitDx=0;exitDy=0;entryX=0.5;entryY=0;entryDx=0;entryDy=0;fontFamily=Comic Sans MS;" parent="1" source="NDg6Oueld_C1ia3fCb1J-10" target="NDg6Oueld_C1ia3fCb1J-21" edge="1">
          <mxGeometry relative="1" as="geometry" />
        </mxCell>
        <mxCell id="NDg6Oueld_C1ia3fCb1J-10" value="Handler" style="rounded=1;whiteSpace=wrap;html=1;fontFamily=Comic Sans MS;fillColor=#e1d5e7;strokeColor=#9673a6;" parent="1" vertex="1">
          <mxGeometry x="240" y="130" width="140" height="120" as="geometry" />
        </mxCell>
        <mxCell id="NDg6Oueld_C1ia3fCb1J-34" style="edgeStyle=orthogonalEdgeStyle;rounded=0;orthogonalLoop=1;jettySize=auto;html=1;exitX=0;exitY=0.5;exitDx=0;exitDy=0;entryX=0.5;entryY=1;entryDx=0;entryDy=0;fontFamily=Comic Sans MS;" parent="1" source="NDg6Oueld_C1ia3fCb1J-13" target="NDg6Oueld_C1ia3fCb1J-102" edge="1">
          <mxGeometry relative="1" as="geometry">
            <Array as="points">
              <mxPoint x="484" y="300" />
            </Array>
          </mxGeometry>
        </mxCell>
        <mxCell id="NDg6Oueld_C1ia3fCb1J-13" value="" style="rounded=1;whiteSpace=wrap;html=1;fontFamily=Comic Sans MS;fillColor=#f8cecc;strokeColor=#b85450;" parent="1" vertex="1">
          <mxGeometry x="560" y="130" width="230" height="340" as="geometry" />
        </mxCell>
        <mxCell id="NDg6Oueld_C1ia3fCb1J-14" value="The thread&#39;s looper that loop the message" style="text;html=1;strokeColor=none;fillColor=none;align=center;verticalAlign=middle;whiteSpace=wrap;rounded=0;fontFamily=Comic Sans MS;" parent="1" vertex="1">
          <mxGeometry x="575" y="140" width="190" height="20" as="geometry" />
        </mxCell>
        <mxCell id="NDg6Oueld_C1ia3fCb1J-17" value="" style="rounded=0;whiteSpace=wrap;html=1;fontFamily=Comic Sans MS;fillColor=#fff2cc;strokeColor=#d6b656;" parent="1" vertex="1">
          <mxGeometry x="615" y="210" width="120" height="250" as="geometry" />
        </mxCell>
        <mxCell id="NDg6Oueld_C1ia3fCb1J-18" value="MessageQueue" style="text;html=1;strokeColor=none;fillColor=none;align=center;verticalAlign=middle;whiteSpace=wrap;rounded=0;fontFamily=Comic Sans MS;" parent="1" vertex="1">
          <mxGeometry x="655" y="220" width="40" height="20" as="geometry" />
        </mxCell>
        <mxCell id="NDg6Oueld_C1ia3fCb1J-29" style="edgeStyle=orthogonalEdgeStyle;rounded=0;orthogonalLoop=1;jettySize=auto;html=1;exitX=0.5;exitY=1;exitDx=0;exitDy=0;entryX=0.5;entryY=1;entryDx=0;entryDy=0;fontFamily=Comic Sans MS;" parent="1" source="NDg6Oueld_C1ia3fCb1J-21" target="NDg6Oueld_C1ia3fCb1J-31" edge="1">
          <mxGeometry relative="1" as="geometry">
            <Array as="points">
              <mxPoint x="125" y="530" />
              <mxPoint x="675" y="530" />
            </Array>
          </mxGeometry>
        </mxCell>
        <mxCell id="NDg6Oueld_C1ia3fCb1J-21" value="Message.Handler = Handler&lt;span style=&quot;white-space: normal&quot;&gt;&lt;br&gt;&lt;/span&gt;" style="rounded=1;whiteSpace=wrap;html=1;fontFamily=Comic Sans MS;" parent="1" vertex="1">
          <mxGeometry x="40" y="310" width="170" height="50" as="geometry" />
        </mxCell>
        <mxCell id="NDg6Oueld_C1ia3fCb1J-82" style="edgeStyle=orthogonalEdgeStyle;rounded=0;orthogonalLoop=1;jettySize=auto;html=1;exitX=0.5;exitY=0;exitDx=0;exitDy=0;entryX=0.5;entryY=0;entryDx=0;entryDy=0;fontFamily=Comic Sans MS;" parent="1" source="NDg6Oueld_C1ia3fCb1J-23" target="NDg6Oueld_C1ia3fCb1J-10" edge="1">
          <mxGeometry relative="1" as="geometry">
            <Array as="points">
              <mxPoint x="650" y="10" />
              <mxPoint x="310" y="10" />
              <mxPoint x="310" y="100" />
            </Array>
          </mxGeometry>
        </mxCell>
        <mxCell id="NDg6Oueld_C1ia3fCb1J-23" value="message" style="rounded=0;whiteSpace=wrap;html=1;fontFamily=Comic Sans MS;" parent="1" vertex="1">
          <mxGeometry x="622.5" y="260" width="105" height="30" as="geometry" />
        </mxCell>
        <mxCell id="n6KTwlOW_15QvZ3awUx1-7" style="edgeStyle=orthogonalEdgeStyle;rounded=0;orthogonalLoop=1;jettySize=auto;html=1;exitX=0.5;exitY=0;exitDx=0;exitDy=0;entryX=0.5;entryY=1;entryDx=0;entryDy=0;fontFamily=Comic Sans MS;" edge="1" parent="1" source="NDg6Oueld_C1ia3fCb1J-27" target="NDg6Oueld_C1ia3fCb1J-23">
          <mxGeometry relative="1" as="geometry" />
        </mxCell>
        <mxCell id="NDg6Oueld_C1ia3fCb1J-27" value="message" style="rounded=0;whiteSpace=wrap;html=1;fontFamily=Comic Sans MS;" parent="1" vertex="1">
          <mxGeometry x="622.5" y="310" width="105" height="30" as="geometry" />
        </mxCell>
        <mxCell id="n6KTwlOW_15QvZ3awUx1-5" style="edgeStyle=orthogonalEdgeStyle;rounded=0;orthogonalLoop=1;jettySize=auto;html=1;exitX=0.5;exitY=0;exitDx=0;exitDy=0;entryX=0.5;entryY=1;entryDx=0;entryDy=0;fontFamily=Comic Sans MS;" edge="1" parent="1" source="NDg6Oueld_C1ia3fCb1J-28" target="NDg6Oueld_C1ia3fCb1J-27">
          <mxGeometry relative="1" as="geometry" />
        </mxCell>
        <mxCell id="NDg6Oueld_C1ia3fCb1J-28" value="..." style="rounded=0;whiteSpace=wrap;html=1;fontFamily=Comic Sans MS;" parent="1" vertex="1">
          <mxGeometry x="622.5" y="360" width="105" height="30" as="geometry" />
        </mxCell>
        <mxCell id="n6KTwlOW_15QvZ3awUx1-3" style="edgeStyle=orthogonalEdgeStyle;rounded=0;orthogonalLoop=1;jettySize=auto;html=1;exitX=0.5;exitY=0;exitDx=0;exitDy=0;entryX=0.5;entryY=1;entryDx=0;entryDy=0;fontFamily=Comic Sans MS;" edge="1" parent="1" source="NDg6Oueld_C1ia3fCb1J-31" target="NDg6Oueld_C1ia3fCb1J-28">
          <mxGeometry relative="1" as="geometry" />
        </mxCell>
        <mxCell id="NDg6Oueld_C1ia3fCb1J-31" value="message" style="rounded=0;whiteSpace=wrap;html=1;fontFamily=Comic Sans MS;" parent="1" vertex="1">
          <mxGeometry x="622.5" y="410" width="105" height="30" as="geometry" />
        </mxCell>
        <mxCell id="NDg6Oueld_C1ia3fCb1J-36" value="2、Loop.myLooper()" style="text;html=1;strokeColor=none;fillColor=none;align=center;verticalAlign=middle;whiteSpace=wrap;rounded=0;fontFamily=Comic Sans MS;" parent="1" vertex="1">
          <mxGeometry x="420" y="250" width="114" height="20" as="geometry" />
        </mxCell>
        <mxCell id="NDg6Oueld_C1ia3fCb1J-37" value="1、Loop.prepare()" style="text;html=1;strokeColor=none;fillColor=none;align=center;verticalAlign=middle;whiteSpace=wrap;rounded=0;fontFamily=Comic Sans MS;" parent="1" vertex="1">
          <mxGeometry x="590" y="100" width="145" height="20" as="geometry" />
        </mxCell>
        <mxCell id="NDg6Oueld_C1ia3fCb1J-96" style="edgeStyle=orthogonalEdgeStyle;rounded=0;orthogonalLoop=1;jettySize=auto;html=1;exitX=0.5;exitY=1;exitDx=0;exitDy=0;entryX=0.5;entryY=0;entryDx=0;entryDy=0;fontFamily=Comic Sans MS;" parent="1" source="NDg6Oueld_C1ia3fCb1J-53" target="NDg6Oueld_C1ia3fCb1J-21" edge="1">
          <mxGeometry relative="1" as="geometry">
            <mxPoint x="125" y="200" as="targetPoint" />
          </mxGeometry>
        </mxCell>
        <mxCell id="NDg6Oueld_C1ia3fCb1J-53" value="Message" style="rounded=0;whiteSpace=wrap;html=1;fontFamily=Comic Sans MS;" parent="1" vertex="1">
          <mxGeometry x="60" y="110" width="130" height="40" as="geometry" />
        </mxCell>
        <mxCell id="NDg6Oueld_C1ia3fCb1J-60" value="6、Message.Handler.dispatchMessage(message)" style="text;html=1;strokeColor=none;fillColor=none;align=center;verticalAlign=middle;whiteSpace=wrap;rounded=0;fontFamily=Comic Sans MS;" parent="1" vertex="1">
          <mxGeometry x="500" y="20" width="40" height="20" as="geometry" />
        </mxCell>
        <mxCell id="NDg6Oueld_C1ia3fCb1J-70" value="Receive the message and handle it" style="rounded=1;whiteSpace=wrap;html=1;fontFamily=Comic Sans MS;" parent="1" vertex="1">
          <mxGeometry x="420" y="350" width="110" height="60" as="geometry" />
        </mxCell>
        <mxCell id="NDg6Oueld_C1ia3fCb1J-41" value="3、Looper.loop()" style="text;html=1;strokeColor=none;fillColor=none;align=center;verticalAlign=middle;whiteSpace=wrap;rounded=0;fontFamily=Comic Sans MS;" parent="1" vertex="1">
          <mxGeometry x="622.5" y="180" width="95" height="20" as="geometry" />
        </mxCell>
        <mxCell id="NDg6Oueld_C1ia3fCb1J-85" value="5、Handler.Looper.MessageQueue.enqueueMessage(message)" style="text;html=1;strokeColor=none;fillColor=none;align=center;verticalAlign=middle;whiteSpace=wrap;rounded=0;fontFamily=Comic Sans MS;" parent="1" vertex="1">
          <mxGeometry x="394" y="502.5" width="40" height="20" as="geometry" />
        </mxCell>
        <mxCell id="NDg6Oueld_C1ia3fCb1J-90" value="7、&lt;br&gt;Handler&lt;br&gt;.handleMessage(message)" style="text;html=1;strokeColor=none;fillColor=none;align=center;verticalAlign=middle;whiteSpace=wrap;rounded=0;fontFamily=Comic Sans MS;" parent="1" vertex="1">
          <mxGeometry x="300" y="270" width="40" height="20" as="geometry" />
        </mxCell>
        <mxCell id="NDg6Oueld_C1ia3fCb1J-100" value="4、Handler.sendMessage(message)" style="text;html=1;fontFamily=Comic Sans MS;" parent="1" vertex="1">
          <mxGeometry x="25" y="240" width="200" height="30" as="geometry" />
        </mxCell>
        <mxCell id="NDg6Oueld_C1ia3fCb1J-105" style="edgeStyle=orthogonalEdgeStyle;rounded=0;orthogonalLoop=1;jettySize=auto;html=1;exitX=0;exitY=0.5;exitDx=0;exitDy=0;entryX=1;entryY=0.5;entryDx=0;entryDy=0;fontFamily=Comic Sans MS;" parent="1" source="NDg6Oueld_C1ia3fCb1J-102" target="NDg6Oueld_C1ia3fCb1J-10" edge="1">
          <mxGeometry relative="1" as="geometry" />
        </mxCell>
        <mxCell id="NDg6Oueld_C1ia3fCb1J-102" value="Handler.Looper=Looper" style="rounded=1;whiteSpace=wrap;html=1;fontFamily=Comic Sans MS;" parent="1" vertex="1">
          <mxGeometry x="414" y="160" width="140" height="60" as="geometry" />
        </mxCell>
        <mxCell id="n6KTwlOW_15QvZ3awUx1-1" value="draw by zhangchaozhou" style="text;html=1;strokeColor=none;fillColor=none;align=center;verticalAlign=middle;whiteSpace=wrap;rounded=0;fontFamily=Comic Sans MS;" vertex="1" parent="1">
          <mxGeometry x="20" y="20" width="140" height="20" as="geometry" />
        </mxCell>
      </root>
    </mxGraphModel>
  </diagram>
</mxfile>
